HIERARCHY
ROOT Hips
{
	OFFSET 0.000000 0.000000 0.000000
	CHANNELS 6 Xposition Yposition Zposition Zrotation Yrotation Xrotation 
	JOINT LHipJoint
	{
		OFFSET 0.000000 0.000000 0.000000
		CHANNELS 3 Zrotation Yrotation Xrotation
		JOINT LeftUpLeg
		{
			OFFSET 1.363060 -1.794630 0.839290
			CHANNELS 3 Zrotation Yrotation Xrotation
			JOINT LeftLeg
			{
				OFFSET 2.448110 -6.726130 0.000000
				CHANNELS 3 Zrotation Yrotation Xrotation
				JOINT LeftFoot
				{
					OFFSET 2.562200 -7.039590 0.000000
					CHANNELS 3 Zrotation Yrotation Xrotation
					JOINT LeftToeBase
					{
						OFFSET 0.157640 -0.433110 2.322550
						CHANNELS 3 Zrotation Yrotation Xrotation
						End Site
						{
							OFFSET 0.000000 0.000000 0.000000
						}
					}
				}
			}
		}
	}
	JOINT RHipJoint
	{
		OFFSET 0.000000 0.000000 0.000000
		CHANNELS 3 Zrotation Yrotation Xrotation
		JOINT RightUpLeg
		{
			OFFSET -1.305520 -1.794630 0.839290
			CHANNELS 3 Zrotation Yrotation Xrotation
			JOINT RightLeg
			{
				OFFSET -2.542530 -6.985550 0.000000
				CHANNELS 3 Zrotation Yrotation Xrotation
				JOINT RightFoot
				{
					OFFSET -2.568260 -7.056230 0.000000
					CHANNELS 3 Zrotation Yrotation Xrotation
					JOINT RightToeBase
					{
						OFFSET -0.164730 -0.452590 2.363150
						CHANNELS 3 Zrotation Yrotation Xrotation
						End Site
						{
							OFFSET 0.000000 0.000000 0.000000
						}
					}
				}
			}
		}
	}
	JOINT LowerBack
	{
		OFFSET 0.000000 0.000000 0.000000
		CHANNELS 3 Zrotation Yrotation Xrotation
		JOINT Spine
		{
			OFFSET 0.028270 2.035590 -0.193380
			CHANNELS 3 Zrotation Yrotation Xrotation
			JOINT Spine1
			{
				OFFSET 0.056720 2.048850 -0.042750
				CHANNELS 3 Zrotation Yrotation Xrotation
				JOINT Neck
				{
					OFFSET 0.000000 0.000000 0.000000
					CHANNELS 3 Zrotation Yrotation Xrotation
					JOINT Neck1
					{
						OFFSET -0.054170 1.746240 0.172020
						CHANNELS 3 Zrotation Yrotation Xrotation
						JOINT Head
						{
							OFFSET 0.104070 1.761360 -0.123970
							CHANNELS 3 Zrotation Yrotation Xrotation
							End Site
							{
								OFFSET 0.000000 0.000000 0.000000
							}
						}
					}
				}
				JOINT LeftShoulder
				{
					OFFSET 0.000000 0.000000 0.000000
					CHANNELS 3 Zrotation Yrotation Xrotation
					JOINT LeftArm
					{
						OFFSET 3.362410 1.200890 -0.311210
						CHANNELS 3 Zrotation Yrotation Xrotation
						JOINT LeftForeArm
						{
							OFFSET 4.983000 -0.000000 -0.000000
							CHANNELS 3 Zrotation Yrotation Xrotation
							JOINT LeftHand
							{
								OFFSET 3.483560 -0.000000 -0.000000
								CHANNELS 3 Zrotation Yrotation Xrotation
								JOINT LeftFingerBase
								{
									OFFSET 0.000000 0.000000 0.000000
									CHANNELS 3 Zrotation Yrotation Xrotation
									JOINT LeftHandIndex1
									{
										OFFSET 0.715260 -0.000000 -0.000000
										CHANNELS 3 Zrotation Yrotation Xrotation
										End Site
										{
											OFFSET 0.000000 0.000000 0.000000
										}
									}
								}
								JOINT LThumb
								{
									OFFSET 0.000000 0.000000 0.000000
									CHANNELS 3 Zrotation Yrotation Xrotation
									End Site
									{
										OFFSET 0.000000 0.000000 0.000000
									}
								}
							}
						}
					}
				}
				JOINT RightShoulder
				{
					OFFSET 0.000000 0.000000 0.000000
					CHANNELS 3 Zrotation Yrotation Xrotation
					JOINT RightArm
					{
						OFFSET -3.136600 1.374050 -0.404650
						CHANNELS 3 Zrotation Yrotation Xrotation
						JOINT RightForeArm
						{
							OFFSET -5.241900 -0.000000 -0.000000
							CHANNELS 3 Zrotation Yrotation Xrotation
							JOINT RightHand
							{
								OFFSET -3.444170 -0.000000 -0.000000
								CHANNELS 3 Zrotation Yrotation Xrotation
								JOINT RightFingerBase
								{
									OFFSET 0.000000 0.000000 0.000000
									CHANNELS 3 Zrotation Yrotation Xrotation
									JOINT RightHandIndex1
									{
										OFFSET -0.622530 -0.000000 -0.000000
										CHANNELS 3 Zrotation Yrotation Xrotation
										End Site
										{
											OFFSET 0.000000 0.000000 0.000000
										}
									}
								}
								JOINT RThumb
								{
									OFFSET 0.000000 0.000000 0.000000
									CHANNELS 3 Zrotation Yrotation Xrotation
									End Site
									{
										OFFSET 0.000000 0.000000 0.000000
									}
								}
							}
						}
					}
				}
			}
		}
	}
}
MOTION
Frames: 12
Frame Time: 0.008333
4.830066 17.361404 1.347299 9.570455 -78.012958 10.119618 -10.563264 0.228078 0.210190 -9.120823 1.430740 -20.737915 -2.306501 -1.160064 -2.791381 0.349618 6.857453 4.835959 2.265200 0.000000 -38.030200 9.903857 0.324451 -2.214436 1.462385 -10.908389 -13.859395 1.857819 1.322845 -5.904678 -1.597173 -11.897990 8.323514 -4.394700 0.000000 -63.353600 -0.729238 -1.884984 4.029068 -0.073624 -1.745186 -2.234536 -3.137631 -1.725755 -0.638181 9.127138 -8.824240 -0.826151 -3.018449 -0.287822 1.676954 0.000000 0.000000 0.000000 5.598575 -2.135504 -1.881524 -83.738424 -9.575556 34.664115 -179.674198 -74.480348 179.948851 5.564309 -0.493891 -0.050993 -0.101525 0.592211 -0.000000 0.000000 0.000000 0.000000 0.000000 0.000000 0.000000 9.368115 -8.191081 2.181957 51.384525 21.204984 46.296927 179.813489 87.709906 179.978805 -6.584259 1.852000 -0.125598 0.241374 -0.291241 -0.000000 0.000000 0.000000 0.000000 0.000000 0.000000 0.000000 
4.826011 17.361951 1.334563 9.217636 -77.264382 10.109029 -10.566897 0.243838 0.318952 -8.964541 1.054219 -20.387128 -2.286667 -1.150610 -2.779012 0.337208 6.712716 4.949362 2.229500 0.000000 -38.191600 9.914224 0.255701 -2.269635 1.492458 -11.244231 -13.310231 1.825795 1.310236 -5.902469 -1.675814 -12.278256 8.174265 -4.475100 0.000000 -63.196300 -0.937371 -1.787121 3.959307 -0.091474 -1.636650 -2.232437 -2.988118 -1.621575 -0.585338 8.952330 -8.549403 -0.764433 -2.989598 -0.287003 1.695741 0.000000 0.000000 0.000000 5.634887 -2.067820 -1.901615 -83.774371 -9.909255 35.202538 -179.680678 -74.467649 179.949583 5.468975 -0.485835 -0.049834 -0.098267 0.593560 -0.000000 0.000000 0.000000 0.000000 0.000000 0.000000 0.000000 9.252146 -7.875475 2.343321 49.805607 22.357685 46.665939 179.825640 87.860278 179.979127 -6.576152 1.728958 -0.117723 0.242309 -0.284052 -0.000000 0.000000 0.000000 0.000000 0.000000 0.000000 0.000000 
4.821199 17.362318 1.321352 8.915623 -76.529055 10.042991 -10.565581 0.262987 0.432372 -8.813870 0.666769 -20.032047 -2.266962 -1.141509 -2.764316 0.325898 6.586599 5.057315 2.198800 0.000000 -38.346400 9.928284 0.186089 -2.315908 1.511825 -11.558817 -12.754958 1.790779 1.298525 -5.910790 -1.759809 -12.670014 8.030140 -4.556001 0.000000 -63.035600 -1.148759 -1.689225 3.874801 -0.108506 -1.527653 -2.230652 -2.831509 -1.517127 -0.525976 8.747019 -8.275988 -0.712142 -2.951839 -0.285584 1.712350 0.000000 0.000000 0.000000 5.668232 -1.967131 -1.920360 -83.787445 -10.271242 35.738447 -179.686731 -74.458792 179.950254 5.382813 -0.471324 -0.048375 -0.095443 0.594466 -0.000000 0.000000 0.000000 0.000000 0.000000 0.000000 0.000000 9.068633 -7.549453 2.503110 48.179035 23.542419 46.985659 179.836593 87.978647 179.979528 -6.548633 1.638241 -0.111556 0.242151 -0.277742 -0.000000 0.000000 0.000000 0.000000 0.000000 0.000000 0.000000 
4.815406 17.362612 1.307833 8.653906 -75.802431 9.937945 -10.560297 0.286397 0.551000 -8.672045 0.278714 -19.674197 -2.249329 -1.133968 -2.764635 0.316248 6.461112 5.173447 2.167400 -0.000000 -38.490800 9.945809 0.115331 -2.351332 1.522726 -11.852381 -12.200664 1.752923 1.288329 -5.929252 -1.849625 -13.077934 7.892942 -4.639900 -0.000000 -62.868600 -1.362870 -1.593441 3.772161 -0.124632 -1.420341 -2.232064 -2.668020 -1.414742 -0.468746 8.516167 -7.994597 -0.662399 -2.908077 -0.283838 1.728852 0.000000 0.000000 0.000000 5.705983 -1.867863 -1.939579 -83.783129 -10.620457 36.239081 -179.695580 -74.437114 179.950840 5.307552 -0.453646 -0.046918 -0.092516 0.595040 -0.000000 0.000000 0.000000 0.000000 0.000000 0.000000 0.000000 8.834172 -7.207631 2.665037 46.474533 24.746489 47.240487 179.845579 88.057147 179.980117 -6.468374 1.568083 -0.105699 0.240233 -0.272071 -0.000000 0.000000 0.000000 0.000000 0.000000 0.000000 0.000000 
4.808798 17.362776 1.294060 8.427483 -75.082841 9.797792 -10.550732 0.313477 0.675136 -8.537143 -0.119918 -19.313563 -2.232696 -1.127285 -2.773163 0.308178 6.343879 5.292826 2.137800 -0.000001 -38.624900 9.966580 0.044394 -2.379000 1.525106 -12.130872 -11.645354 1.712615 1.279288 -5.956684 -1.944606 -13.498657 7.762504 -4.725400 -0.000000 -62.696401 -1.575843 -1.500315 3.654599 -0.139011 -1.315389 -2.235430 -2.497252 -1.315041 -0.411043 8.255460 -7.711303 -0.618650 -2.857008 -0.281634 1.744230 0.000000 0.000000 0.000000 5.743001 -1.759182 -1.959067 -83.759908 -10.970580 36.713124 -179.706426 -74.409755 179.951317 5.246112 -0.431008 -0.045263 -0.089770 0.595173 -0.000000 0.000000 0.000000 0.000000 0.000000 0.000000 0.000000 8.539726 -6.855897 2.827278 44.692839 25.969660 47.419446 179.853497 88.114066 179.980961 -6.315255 1.525460 -0.100557 0.235972 -0.267065 -0.000000 0.000000 0.000000 0.000000 0.000000 0.000000 0.000000 
4.801393 17.362814 1.280164 8.231352 -74.366648 9.628274 -10.537054 0.344049 0.804842 -8.408950 -0.531422 -18.950194 -2.217095 -1.121335 -2.790646 0.301635 6.232909 5.416002 2.109300 0.000001 -38.748200 9.990418 -0.026098 -2.400968 1.519558 -12.400782 -11.089604 1.670408 1.271313 -5.991907 -2.044421 -13.929190 7.638825 -4.811600 0.000000 -62.520500 -1.783919 -1.410810 3.523949 -0.150888 -1.213935 -2.240191 -2.319355 -1.219124 -0.351783 7.962433 -7.430977 -0.583168 -2.798395 -0.278925 1.757832 0.000000 0.000000 0.000000 5.775395 -1.636626 -1.978809 -83.716403 -11.327412 37.163807 -179.718830 -74.376854 179.951672 5.200327 -0.402169 -0.043508 -0.087370 0.594807 -0.000000 0.000000 0.000000 0.000000 0.000000 0.000000 0.000000 8.182209 -6.500172 2.988423 42.828519 27.210992 47.510738 179.861179 88.166129 179.982177 -6.073337 1.511541 -0.095733 0.228911 -0.262652 -0.000000 0.000000 0.000000 0.000000 0.000000 0.000000 0.000000 
4.793297 17.362695 1.266201 8.061360 -73.650857 9.433910 -10.519254 0.377727 0.940248 -8.286734 -0.960972 -18.585404 -2.202159 -1.115685 -2.813690 0.296229 6.129963 5.541715 2.082900 0.000000 -38.860900 10.017126 -0.095480 -2.419729 1.506372 -12.668844 -10.533806 1.626835 1.264111 -6.032887 -2.148083 -14.366380 7.522075 -4.897999 0.000000 -62.341400 -1.983801 -1.325659 3.382612 -0.159746 -1.116881 -2.246414 -2.135134 -1.127843 -0.292840 7.636485 -7.154521 -0.555796 -2.732666 -0.275731 1.769689 0.000000 0.000000 0.000000 5.801297 -1.503553 -1.998690 -83.651917 -11.688533 37.589521 -179.732847 -74.335300 179.951902 5.170201 -0.367815 -0.041654 -0.085313 0.593957 -0.000000 0.000000 0.000000 0.000000 0.000000 0.000000 0.000000 7.762153 -6.142387 3.146947 40.872240 28.461125 47.500089 179.869167 88.227102 179.983702 -5.734798 1.522451 -0.090727 0.218772 -0.258705 -0.000000 0.000000 0.000000 0.000000 0.000000 0.000000 0.000000 
4.784561 17.362455 1.252273 7.913864 -72.930782 9.218182 -10.497405 0.413907 1.081293 -8.170789 -1.410528 -18.220286 -2.188027 -1.110253 -2.840165 0.291531 6.033541 5.669256 2.058300 0.000000 -38.963900 10.045281 -0.161242 -2.438564 1.486164 -12.939536 -10.012501 1.582019 1.251693 -6.002886 -2.245903 -14.805576 7.369308 -4.983900 0.000000 -62.160200 -2.171738 -1.245736 3.233669 -0.165071 -1.025305 -2.253947 -1.946022 -1.042184 -0.235682 7.277110 -6.883726 -0.537097 -2.659984 -0.272048 1.779624 0.000000 0.000000 0.000000 5.816878 -1.359785 -2.017857 -83.563352 -12.055635 37.992593 -179.748022 -74.285729 179.952022 5.154685 -0.328157 -0.039701 -0.083646 0.592610 -0.000000 0.000000 0.000000 0.000000 0.000000 0.000000 0.000000 7.278890 -5.784818 3.299947 38.818568 29.708740 47.374801 179.878170 88.313267 179.985506 -5.304038 1.552923 -0.085240 0.205554 -0.255090 -0.000000 0.000000 0.000000 0.000000 0.000000 0.000000 0.000000 
4.775117 17.362129 1.238463 7.785454 -72.202484 8.987689 -10.471975 0.452461 1.227507 -8.062499 -1.875011 -17.857125 -2.175630 -1.105336 -2.873306 0.287287 5.934956 5.802438 2.033100 -0.000000 -39.057500 10.074445 -0.222732 -2.458351 1.459948 -13.216543 -9.538289 1.536339 1.232527 -5.879773 -2.333777 -15.245301 7.169014 -5.069700 -0.000000 -61.977100 -2.345736 -1.171523 3.077971 -0.166873 -0.939839 -2.264048 -1.754236 -0.962682 -0.185513 6.888184 -6.613288 -0.523891 -2.581915 -0.268008 1.788532 0.000000 0.000000 0.000000 5.823611 -1.215826 -2.035634 -83.450305 -12.418649 38.368454 -179.764628 -74.220978 179.952042 5.151805 -0.285969 -0.037748 -0.082245 0.590893 -0.000000 0.000000 0.000000 0.000000 0.000000 0.000000 0.000000 6.740754 -5.423000 3.444727 36.655551 30.928210 47.119670 179.888281 88.430727 179.987491 -4.792531 1.588093 -0.078370 0.189490 -0.251573 -0.000000 0.000000 0.000000 0.000000 0.000000 0.000000 0.000000 
4.765155 17.361651 1.224738 7.678404 -71.466195 8.740416 -10.442879 0.492510 1.377474 -7.961676 -2.360949 -17.499151 -2.164136 -1.099776 -2.902129 0.282650 5.841062 5.934157 2.009801 -0.000000 -39.144201 10.105893 -0.281208 -2.481588 1.426128 -13.510503 -9.067436 1.490960 1.213452 -5.756849 -2.420856 -15.680979 6.973940 -5.153099 -0.000000 -61.795800 -2.501122 -1.102158 2.919848 -0.164358 -0.859954 -2.274678 -1.560816 -0.888635 -0.137208 6.462595 -6.359416 -0.523308 -2.495966 -0.263353 1.794332 0.000000 0.000000 0.000000 5.808474 -1.047205 -2.050010 -83.305817 -12.806921 38.738834 -179.779715 -74.147860 179.952005 5.158544 -0.239647 -0.035595 -0.081525 0.588712 -0.000000 0.000000 0.000000 0.000000 0.000000 0.000000 0.000000 6.128491 -5.070682 3.574537 34.407508 32.121042 46.737613 179.900784 88.615356 179.989508 -4.239532 1.630151 -0.070812 0.171414 -0.248166 -0.000000 0.000000 0.000000 0.000000 0.000000 0.000000 0.000000 
4.754661 17.361039 1.211189 7.591398 -70.719970 8.481057 -10.410515 0.533375 1.530189 -7.869614 -2.865691 -17.150761 -2.153985 -1.093553 -2.924804 0.277200 5.748437 6.064122 1.987700 -0.000000 -39.225900 10.139363 -0.336468 -2.509105 1.384748 -13.824377 -8.601485 1.446266 1.194729 -5.637016 -2.506698 -16.111057 6.785689 -5.234300 -0.000000 -61.617000 -2.635857 -1.037220 2.761010 -0.157513 -0.785418 -2.285961 -1.368075 -0.819679 -0.092124 6.001776 -6.127024 -0.536166 -2.402454 -0.258083 1.796769 0.000000 0.000000 0.000000 5.767831 -0.852293 -2.059610 -83.127264 -13.224148 39.108134 -179.792205 -74.064003 179.951944 5.171360 -0.191406 -0.033441 -0.081528 0.586150 0.000000 0.000000 0.000000 0.000000 0.000000 0.000000 0.000000 5.442598 -4.732163 3.684906 32.081035 33.271830 46.225725 179.915676 88.883171 179.991400 -3.681526 1.666937 -0.062658 0.152248 -0.244734 -0.000000 0.000000 0.000000 0.000000 0.000000 0.000000 0.000000 
4.743621 17.360418 1.197853 7.520049 -69.961680 8.218002 -10.375732 0.574754 1.684244 -7.788575 -3.376706 -16.816793 -2.146665 -1.087234 -2.946830 0.270331 5.643165 6.199373 1.962900 -0.000000 -39.303500 10.174657 -0.389283 -2.538891 1.337795 -14.154975 -8.144167 1.402138 1.176966 -5.525126 -2.591903 -16.540439 6.608362 -5.316200 0.000001 -61.438600 -2.752119 -0.975603 2.600580 -0.147488 -0.715059 -2.301299 -1.179267 -0.754511 -0.062343 5.517478 -5.896024 -0.552082 -2.304257 -0.252512 1.798782 0.000000 0.000000 0.000000 5.711063 -0.661279 -2.063625 -82.918080 -13.640919 39.459388 -179.803633 -73.959604 179.951888 5.185436 -0.145709 -0.031287 -0.081772 0.583443 -0.000000 0.000000 0.000000 0.000000 0.000000 0.000000 0.000000 4.702456 -4.385948 3.774242 29.669412 34.321645 45.571514 179.931550 89.221064 179.993061 -3.140370 1.670345 -0.053404 0.132731 -0.240983 0.000000 0.000000 0.000000 0.000000 0.000000 0.000000 0.000000 
